<?xml version="1.0" encoding="utf-8"?>
<!-- Generator: Adobe Illustrator 16.0.0, SVG Export Plug-In . SVG Version: 6.00 Build 0)  -->
<!DOCTYPE svg PUBLIC "-//W3C//DTD SVG 1.1//EN" "http://www.w3.org/Graphics/SVG/1.1/DTD/svg11.dtd">
<svg version="1.1" id="Layer_1" xmlns="http://www.w3.org/2000/svg" xmlns:xlink="http://www.w3.org/1999/xlink" x="0px" y="0px"
	 width="99.207px" height="43.055px" viewBox="0 0 99.207 43.055" enable-background="new 0 0 99.207 43.055" xml:space="preserve">
<g>
	<path fill="#680B12" d="M78.181,1.734H22.729c-10.793,0-19.543,8.75-19.543,19.544c0,10.793,8.75,19.543,19.543,19.543h55.452
		c10.793,0,19.543-8.75,19.543-19.543C97.724,10.484,88.974,1.734,78.181,1.734z"/>
	<path fill="#680B12" d="M78.181,41.321H22.729c-11.052,0-20.043-8.991-20.043-20.043S11.678,1.234,22.729,1.234h55.452
		c11.051,0,20.043,8.992,20.043,20.044C98.224,32.33,89.232,41.321,78.181,41.321z M22.729,2.234
		c-10.5,0-19.043,8.543-19.043,19.044c0,10.5,8.543,19.043,19.043,19.043h55.452c10.5,0,19.043-8.543,19.043-19.043
		c0-10.501-8.543-19.044-19.043-19.044H22.729z"/>
</g>
<rect x="22.049" y="2.234" fill="#FFFFFF" width="56.814" height="38.087"/>
<g>
	<path fill="#680B12" d="M31.249,25.27h-5.267v-0.699h1.093v-6.585h-1.093v-0.7h5.267c1.079,0,1.947,0.869,1.947,1.947v4.09
		C33.196,24.402,32.328,25.27,31.249,25.27z M32.439,19.232c0-0.687-0.56-1.247-1.247-1.247h-3.362v6.585h3.362
		c0.687,0,1.247-0.561,1.247-1.248V19.232z"/>
	<path fill="#680B12" d="M34.62,25.27v-0.699h1.093v-6.585H34.62v-0.7h6.64v2.675h-0.743v-1.975h-4.048v2.942h2.241v-1.051h0.756
		v2.803H38.71v-1.023h-2.241v2.915h4.118v-1.962h0.742v2.661H34.62z"/>
	<path fill="#680B12" d="M42.782,25.27v-0.699h1.499v-6.585h-1.499v-0.7h3.992v0.7h-1.737v6.585h4.006v-2.873H49.8v3.572H42.782z"/>
	<path fill="#680B12" d="M51.42,25.27v-0.699h1.093v-6.585H51.42v-0.7h6.64v2.675h-0.742v-1.975h-4.049v2.942h2.241v-1.051h0.757
		v2.803H55.51v-1.023h-2.241v2.915h4.118v-1.962h0.743v2.661H51.42z"/>
	<path fill="#680B12" d="M65.941,20.1v-2.115h-2.465v6.585h1.736v0.699h-4.229v-0.699h1.736v-6.585h-2.465V20.1h-0.757v-2.815h7.186
		V20.1H65.941z"/>
	<path fill="#680B12" d="M68.219,25.27v-0.699h1.093v-6.585h-1.093v-0.7h6.64v2.675h-0.742v-1.975h-4.049v2.942h2.241v-1.051h0.757
		v2.803h-0.757v-1.023h-2.241v2.915h4.118v-1.962h0.743v2.661H68.219z"/>
</g>
</svg>
