<?xml version="1.0" encoding="utf-8"?>
<!-- Generator: Adobe Illustrator 16.0.0, SVG Export Plug-In . SVG Version: 6.00 Build 0)  -->
<!DOCTYPE svg PUBLIC "-//W3C//DTD SVG 1.1//EN" "http://www.w3.org/Graphics/SVG/1.1/DTD/svg11.dtd">
<svg version="1.1" id="Layer_1" xmlns="http://www.w3.org/2000/svg" xmlns:xlink="http://www.w3.org/1999/xlink" x="0px" y="0px"
	 width="176px" height="28.5px" viewBox="0 0 176 28.5" enable-background="new 0 0 176 28.5" xml:space="preserve">
<g>
	<path d="M6.508,21.082H5.021v-6.084c-0.099-1.764-0.139-3.191-0.416-4.52h1.447L6.389,12.5c0.813-1.249,1.705-2.24,3.291-2.24
		c1.982,0,2.458,1.942,2.458,3.548H10.65c-0.04-0.793,0.079-2.299-1.051-2.299c-1.09,0-2.973,1.665-3.092,5.153V21.082z"/>
	<path d="M17.015,16.167c0.08,2.913,1.388,3.884,3.013,3.884c1.169,0,2.339-0.535,3.311-1.13l0.634,1.328
		c-1.328,0.595-2.597,1.051-4.063,1.051c-3.132,0-4.38-2.696-4.38-5.451c0-2.774,1.288-5.589,4.459-5.589
		c3.528,0,4.083,3.944,4.083,5.094v0.813H17.015z M22.584,14.918c-0.06-1.744-1.05-3.409-2.715-3.409s-2.478,1.269-2.874,3.409
		H22.584z"/>
	<path d="M31.665,11.568c0.852,0,1.585,0.654,1.585,1.526s-0.733,1.546-1.585,1.546c-0.872,0-1.605-0.674-1.605-1.546
		S30.812,11.568,31.665,11.568z M31.665,18.287c0.852,0,1.585,0.654,1.585,1.526s-0.733,1.546-1.585,1.546
		c-0.872,0-1.605-0.674-1.605-1.546S30.812,18.287,31.665,18.287z"/>
	<path d="M50.652,11.455v-3.65h-6.759v4.786h3.461v-1.946h2v5.839h-2v-1.892h-3.461v4.73h3.407v1.947h-7.435v-1.947h2V7.805h-2
		V5.858H52.68v5.597H50.652z"/>
	<path d="M65.655,14.375v-0.892c0-1.082-0.892-1.947-1.974-1.947h-2.352c-1.082,0-1.974,0.865-1.974,1.947v5.866h5.029v1.92H54.11
		v-1.92h3.217v-5.866c0-1.082-0.892-1.947-1.974-1.947h-0.811V9.562h0.919c1.136,0,2.19,0.487,2.893,1.271
		c0.703-0.784,1.73-1.271,2.866-1.271h2.542c2.163,0,3.893,1.73,3.893,3.866v0.946H65.655z"/>
	<path d="M70.005,21.269v-1.947h5.218v-7.813h-4.623V9.562h6.624v9.759h4.461v1.947H70.005z M74.872,7.535V3.695h2.353v3.839H74.872
		z"/>
	<path d="M95.086,13.131v9.3c0,2.165-1.728,3.95-3.887,3.95h-5.353v-2h5.244c1.08,0,1.998-0.895,1.998-2.003v-2.136
		c-0.567,0.324-1.215,0.486-1.889,0.486h-3.297c-2.163,0-3.894-1.784-3.894-3.947v-3.379c0-2.136,1.785-3.839,3.894-3.839h3.297
		c1.134,0,2.186,0.514,2.889,1.298c0.701-0.784,1.727-1.298,3.184-1.298v2C95.841,11.563,95.086,12.374,95.086,13.131z
		 M93.061,13.564c0-1.108-0.89-2.001-1.97-2.001h-3.108c-1.082,0-1.974,0.893-1.974,2.001v3.163c0,1.108,0.892,2.001,1.974,2.001
		h3.108c1.08,0,1.97-0.893,1.97-2.001V13.564z"/>
	<path d="M107.607,21.269h-3.671c-2.131,0-3.859-1.73-3.859-3.866v-3.974c0-2.136,1.728-3.866,3.859-3.866h3.671
		c2.132,0,3.863,1.73,3.863,3.866v2.379h-9.369v1.541c0,1.082,0.864,1.947,1.943,1.947h3.482c1.134,0,1.943-0.812,1.943-2.217h2
		C111.47,19.539,109.739,21.269,107.607,21.269z M109.47,13.483c0-1.082-0.756-1.947-1.943-1.947h-3.482
		c-1.188,0-1.943,0.865-1.943,1.947v0.514h7.369V13.483z"/>
	<path d="M125.527,14.375v-0.892c0-1.082-0.892-1.947-1.974-1.947h-2.352c-1.082,0-1.975,0.865-1.975,1.947v5.866h5.029v1.92
		h-10.274v-1.92h3.218v-5.866c0-1.082-0.892-1.947-1.974-1.947h-0.812V9.562h0.92c1.136,0,2.189,0.487,2.893,1.271
		c0.703-0.784,1.73-1.271,2.866-1.271h2.541c2.163,0,3.894,1.73,3.894,3.866v0.946H125.527z"/>
	<path d="M138.99,19.999c-0.704,0.783-1.785,1.271-2.921,1.271h-3.136c-2.028,0-3.678-1.649-3.678-3.677
		c0-2.028,1.649-3.65,3.678-3.65h5.028v-0.459c0-1.082-0.892-1.947-1.974-1.947h-5.812V9.562h5.894c2.136,0,3.894,1.73,3.894,3.866
		v3.919c0,1.189,0.812,1.947,2.217,1.947v1.974C140.721,21.269,139.692,20.782,138.99,19.999z M137.962,15.889h-4.974
		c-0.947,0-1.704,0.757-1.704,1.703c0,0.945,0.757,1.703,1.704,1.703h3c1.082,0,1.974-0.865,1.974-1.947V15.889z"/>
	<path d="M152.316,21.269c-2.163,0-3.92-1.785-3.92-3.947v-5.948h-5.083V9.562h5.083V6.102h2v3.461h6.084v1.812h-6.084v5.92
		c0,1.082,0.893,1.974,1.974,1.974h5.002v2.001H152.316z"/>
	<path d="M170.456,14.375v-0.892c0-1.082-0.893-1.947-1.974-1.947h-2.353c-1.081,0-1.974,0.865-1.974,1.947v5.866h5.028v1.92
		h-10.273v-1.92h3.218v-5.866c0-1.082-0.893-1.947-1.974-1.947h-0.812V9.562h0.92c1.135,0,2.189,0.487,2.893,1.271
		c0.703-0.784,1.73-1.271,2.865-1.271h2.542c2.163,0,3.894,1.73,3.894,3.866v0.946H170.456z"/>
</g>
</svg>
