<?xml version="1.0" encoding="utf-8"?>
<!-- Generator: Adobe Illustrator 16.0.0, SVG Export Plug-In . SVG Version: 6.00 Build 0)  -->
<!DOCTYPE svg PUBLIC "-//W3C//DTD SVG 1.1//EN" "http://www.w3.org/Graphics/SVG/1.1/DTD/svg11.dtd">
<svg version="1.1" id="Layer_1" xmlns="http://www.w3.org/2000/svg" xmlns:xlink="http://www.w3.org/1999/xlink" x="0px" y="0px"
	 width="99.206px" height="43.055px" viewBox="0 0 99.206 43.055" enable-background="new 0 0 99.206 43.055" xml:space="preserve">
<g>
	<path fill="#FFFFFF" d="M77.575,1.984H22.123c-10.793,0-19.543,8.75-19.543,19.544c0,10.793,8.75,19.543,19.543,19.543h55.452
		c10.794,0,19.544-8.75,19.544-19.543C97.119,10.734,88.369,1.984,77.575,1.984z"/>
	<path fill="#D32027" d="M77.575,41.571H22.123c-11.052,0-20.043-8.992-20.043-20.043c0-11.052,8.992-20.044,20.043-20.044h55.452
		c11.052,0,20.044,8.992,20.044,20.044C97.619,32.58,88.627,41.571,77.575,41.571z M22.123,2.484
		c-10.5,0-19.043,8.543-19.043,19.044c0,10.5,8.543,19.043,19.043,19.043h55.452c10.501,0,19.044-8.543,19.044-19.043
		c0-10.501-8.543-19.044-19.044-19.044H22.123z"/>
</g>
<circle fill="#D32027" cx="22.33" cy="21.528" r="17.956"/>
</svg>
